<svg xmlns="http://www.w3.org/2000/svg" width="128" height="128" viewBox="0 0 128 128" role="img" aria-label="sx programming language icon">
  <title>sx programming language icon</title>
  <desc>Transparent icon using Noto Sans Mono Black, converted to vector outlines.</desc>
  <g transform="translate(0.947103 79.685642) scale(0.05642317 -0.05642317)" fill="#fff">
    <path d="M475 -168Q381 -168 328.5 -152.5Q276 -137 255.0 -100.5Q234 -64 234 0V126Q234 168 203.5 188.5Q173 209 125 209V347Q175 347 204.5 367.0Q234 387 234 430V558Q234 618 253.0 654.5Q272 691 324.0 707.5Q376 724 475 724V592Q453 591 433.5 588.0Q414 585 402.0 574.5Q390 564 390 540V404Q390 346 364.0 317.5Q338 289 286 281V275Q339 266 364.5 238.0Q390 210 390 155V17Q390 -16 413.5 -25.0Q437 -34 475 -36Z"/>
    <path d="M808 -10Q760 -10 711.0 -2.5Q662 5 615 21V175Q669 150 720.5 137.5Q772 125 817 125Q849 125 873.5 132.5Q898 140 898 160Q898 177 881.0 187.0Q864 197 834.5 207.0Q805 217 766 233Q696 263 660.5 299.0Q625 335 625 396Q625 481 687.0 522.0Q749 563 858 563Q908 563 958.5 553.5Q1009 544 1065 521L1010 390Q970 411 932.0 419.5Q894 428 863 428Q832 428 813.5 420.5Q795 413 795 396Q795 384 806.5 376.0Q818 368 844.5 359.0Q871 350 916 332Q967 313 1001.0 292.5Q1035 272 1052.0 243.5Q1069 215 1069 171Q1069 118 1042.5 77.0Q1016 36 958.5 13.0Q901 -10 808 -10Z M1100 0 1268 282 1108 553H1309L1388 404L1472 553H1672L1506 281L1680 0H1478L1386 159L1303 0Z"/>
    <path d="M1760.0 724.0Q1854.0 724.0 1906.5 708.5Q1959.0 693.0 1980.0 656.5Q2001.0 620.0 2001.0 556.0V430.0Q2001.0 388.0 2031.5 367.5Q2062.0 347.0 2110.0 347.0V209.0Q2060.0 209.0 2030.5 189.0Q2001.0 169.0 2001.0 126.0V-2.0Q2001.0 -62.0 1982.0 -98.5Q1963.0 -135.0 1911.0 -151.5Q1859.0 -168.0 1760.0 -168.0V-36.0Q1782.0 -35.0 1801.5 -32.0Q1821.0 -29.0 1833.0 -18.5Q1845.0 -8.0 1845.0 16.0V152.0Q1845.0 210.0 1871.0 238.5Q1897.0 267.0 1949.0 275.0V281.0Q1896.0 290.0 1870.5 318.0Q1845.0 346.0 1845.0 401.0V539.0Q1845.0 572.0 1821.5 581.0Q1798.0 590.0 1760.0 592.0Z"/>
  </g>
</svg>
